<?xml version="1.0" encoding="UTF-8" standalone="no"?>
<!DOCTYPE svg  PUBLIC '-//W3C//DTD SVG 1.1//EN'  'http://www.w3.org/Graphics/SVG/1.1/DTD/svg11.dtd' [
<!ENTITY ns_flows "http://ns.adobe.com/Flows/1.0/">
<!ENTITY ns_extend "http://ns.adobe.com/Extensibility/1.0/">
<!ENTITY ns_ai "http://ns.adobe.com/AdobeIllustrator/10.0/">
<!ENTITY ns_graphs "http://ns.adobe.com/Graphs/1.0/">
]>
<svg id="Layer_1" xmlns="http://www.w3.org/2000/svg" enable-background="new 0 0 155 155" xml:space="preserve" height="155px" viewBox="0 0 155 155" width="155px" version="1.1" y="0px" x="0px" xmlns:xlink="http://www.w3.org/1999/xlink">
	<circle cy="77.5" cx="77.5" r="77.5" fill="#9DE8F7"/>
				<path d="m110 46v71c0 0.768-0.293 1.535-0.879 2.121s-1.35 0.88-2.12 0.88h-59.001c-0.768 0-1.535-0.293-2.121-0.879s-0.879-1.354-0.879-2.121v-79c0-0.768 0.293-1.535 0.879-2.121s1.353-0.879 2.121-0.879h51.001l11 11z" fill="#fff"/>
				<path d="m110 46h-8c-0.768 0-1.537-0.293-2.121-0.879-0.586-0.586-0.879-1.353-0.879-2.121v-8l11 11z" fill="#E6E5E5"/>
				<rect y="59.457" x="55.999" height="3.365" width="43.001" fill="#CCCBCA"/>
				<rect y="66.186" x="55.999" height="3.365" width="43.001" fill="#CCCBCA"/>
				<rect y="46" x="55.999" height="3.365" width="21.502" fill="#3F4A5A"/>
				<rect y="52.729" x="55.999" height="3.365" width="43.001" fill="#CCCBCA"/>
				<rect y="106.56" x="55.999" height="3.365" width="43.001" fill="#CCCBCA"/>
				<rect y="99.828" x="55.999" height="3.365" width="43.001" fill="#CCCBCA"/>
				<rect y="93.1" x="55.999" height="3.365" width="43.001" fill="#CCCBCA"/>
				<rect y="86.371" x="55.999" height="3.365" width="43.001" fill="#CCCBCA"/>
				<rect y="79.643" x="55.999" height="3.365" width="43.001" fill="#CCCBCA"/>
				<rect y="72.914" x="55.999" height="3.365" width="43.001" fill="#CCCBCA"/>
			<rect y="92.191" x="93.313" height="4.273" width="3.836" fill="#333C49"/>
				<path d="m95.229 52.729c-11.151 0-20.186 9.036-20.186 20.184 0 11.152 9.034 20.188 20.186 20.188 11.147 0 20.187-9.035 20.187-20.188 0-11.148-9.04-20.184-20.191-20.184z" fill="#3F4A5A"/>
				<path d="m95.227 89.064c-8.916 0-16.148-7.229-16.148-16.152 0-8.92 7.232-16.147 16.148-16.147 8.92 0 16.155 7.228 16.155 16.147 0 8.924-7.23 16.152-16.153 16.152z" fill="#84D7E8"/>
				<path d="m95.227 85.842c-7.135 0-12.925-5.787-12.925-12.93 0-7.139 5.79-12.926 12.925-12.926 7.14 0 12.934 5.787 12.934 12.926 0 7.143-5.79 12.93-12.933 12.93z" fill="#9DE8F7"/>
				<circle cy="72.912" cx="95.23" r="2.249" fill="#fff"/>
				<circle cy="66.029" cx="88.348" r="5.059" fill="#fff"/>
			<path d="m99.002 98.279v17.953c0 2.08-1.686 3.768-3.771 3.768s-3.772-1.688-3.772-3.768v-17.951h7.543z" fill="#3F4A5A"/>
			<path d="m99 98.276h-7.541v-0.464c0-0.344 0.131-0.691 0.395-0.953 0.263-0.264 0.605-0.395 0.948-0.395h4.856c0.343 0 0.686 0.131 0.949 0.395 0.263 0.262 0.393 0.61 0.393 0.954v0.463z" fill="#E6E5E5"/>
	<metadata>
		<rdf:RDF xmlns:rdf="http://www.w3.org/1999/02/22-rdf-syntax-ns#" xmlns:dc="http://purl.org/dc/elements/1.1/" xmlns:rdfs="http://www.w3.org/2000/01/rdf-schema#">
			<rdf:Description about="https://iconscout.com/legal#licenses" dc:title="24 research file document content search magnifier" dc:language="en" dc:format="image/svg+xml" dc:date="2017-02-24" dc:publisher="Iconscout" dc:description="24 research file document content search magnifier">
				<dc:creator>
					<rdf:Bag>
						<rdf:li>Maxim Basinski</rdf:li>
					</rdf:Bag>
				</dc:creator>
			</rdf:Description>
		</rdf:RDF>
    </metadata></svg>
