<svg width="155" height="155" viewBox="0 0 155 155" xmlns="http://www.w3.org/2000/svg"><title>logo</title><g fill-rule="nonzero" fill="none"><circle fill="#CCFF90" cx="77.5" cy="77.5" r="77.5"/><path d="M110 46v71c0 .768-.293 1.535-.88 2.12-.585.587-1.352.88-2.12.88H48c-.77 0-1.536-.293-2.122-.88-.586-.585-.88-1.353-.88-2.12V38c0-.768.294-1.535.88-2.12.586-.587 1.353-.88 2.12-.88H99l11 11z" fill="#FFF"/><path d="M110 46h-8c-.768 0-1.537-.293-2.12-.88-.587-.585-.88-1.352-.88-2.12v-8l11 11z" fill="#E6E5E5"/><g><path fill="#CCCBCA" d="M56 59.457h43v3.365H56zM56 66.186h43v3.365H56z"/><path fill="#3F4A5A" d="M56 46h21.5v3.365H56z"/><path fill="#CCCBCA" d="M56 52.73h43v3.364H56zM56 106.557h43v3.365H56zM56 99.828h43v3.365H56zM56 93.1h43v3.365H56zM56 86.37h43v3.366H56zM56 79.643h43v3.365H56zM56 72.914h43v3.365H56z"/></g><g><path fill="#333C49" d="M93.313 92.19h3.836v4.274h-3.837z"/><g transform="translate(75 52)"><path d="M20.23.73C9.077.73.042 9.764.042 20.912.043 32.065 9.077 41.1 20.23 41.1c11.146 0 20.186-9.034 20.186-20.187C40.416 9.765 31.376.73 20.23.73z" fill="#3F4A5A"/><path d="M20.227 37.064c-8.916 0-16.148-7.23-16.148-16.152 0-8.92 7.23-16.147 16.147-16.147 8.92 0 16.155 7.228 16.155 16.147 0 8.924-7.236 16.152-16.155 16.152z" fill="#8BC34A"/><path d="M20.227 33.842c-7.135 0-12.925-5.787-12.925-12.93 0-7.14 5.79-12.926 12.925-12.926 7.14 0 12.934 5.787 12.934 12.926 0 7.143-5.794 12.93-12.933 12.93z" fill="#CCFF90"/><circle fill="#FFF" cx="20.23" cy="20.912" r="2.249"/><circle fill="#FFF" cx="13.348" cy="14.029" r="5.059"/></g><path d="M99.002 98.28v17.952c0 2.08-1.686 3.768-3.77 3.768-2.086 0-3.773-1.688-3.773-3.768V98.28H99z" fill="#3F4A5A"/><path d="M99 98.276h-7.54v-.464c0-.344.13-.69.394-.953.263-.265.605-.396.948-.396h4.856c.343 0 .686.13.95.395.262.26.392.61.392.953v.463z" fill="#E6E5E5"/></g></g></svg>